<svg width="399" height="109" viewBox="0 0 399 109" fill="none" xmlns="http://www.w3.org/2000/svg">
<path d="M53.4463 62.576C53.4463 59.6 53.0143 56.888 52.1503 54.44C51.3343 51.944 50.1103 49.808 48.4783 48.032C46.8943 46.208 44.9503 44.816 42.6463 43.856C40.3423 42.848 37.7263 42.344 34.7983 42.344C28.6543 42.344 23.7823 44.144 20.1823 47.744C16.6303 51.296 14.4223 56.24 13.5583 62.576H53.4463ZM63.8143 96.776C62.2303 98.696 60.3343 100.376 58.1263 101.816C55.9183 103.208 53.5423 104.36 50.9983 105.272C48.5023 106.184 45.9103 106.856 43.2223 107.288C40.5343 107.768 37.8703 108.008 35.2303 108.008C30.1903 108.008 25.5343 107.168 21.2623 105.488C17.0383 103.76 13.3663 101.264 10.2463 98C7.17427 94.688 4.77427 90.608 3.04627 85.76C1.31827 80.912 0.454272 75.344 0.454272 69.056C0.454272 63.968 1.22227 59.216 2.75827 54.8C4.34227 50.384 6.59827 46.568 9.52627 43.352C12.4543 40.088 16.0303 37.544 20.2543 35.72C24.4783 33.848 29.2303 32.912 34.5103 32.912C38.8783 32.912 42.9103 33.656 46.6063 35.144C50.3503 36.584 53.5663 38.696 56.2543 41.48C58.9903 44.216 61.1263 47.624 62.6623 51.704C64.1983 55.736 64.9663 60.344 64.9663 65.528C64.9663 67.544 64.7503 68.888 64.3183 69.56C63.8863 70.232 63.0703 70.568 61.8703 70.568H13.1263C13.2703 75.176 13.8943 79.184 14.9983 82.592C16.1503 86 17.7343 88.856 19.7503 91.16C21.7663 93.416 24.1663 95.12 26.9503 96.272C29.7343 97.376 32.8543 97.928 36.3103 97.928C39.5263 97.928 42.2863 97.568 44.5903 96.848C46.9423 96.08 48.9583 95.264 50.6383 94.4C52.3183 93.536 53.7103 92.744 54.8143 92.024C55.9663 91.256 56.9503 90.872 57.7663 90.872C58.8223 90.872 59.6383 91.28 60.2143 92.096L63.8143 96.776ZM98.2764 0.943996V107H85.4604V0.943996H98.2764ZM136.916 34.064V107H124.1V34.064H136.916ZM139.652 11.168C139.652 12.416 139.388 13.592 138.86 14.696C138.38 15.752 137.708 16.712 136.844 17.576C136.028 18.392 135.044 19.04 133.892 19.52C132.788 20 131.612 20.24 130.364 20.24C129.116 20.24 127.94 20 126.836 19.52C125.78 19.04 124.844 18.392 124.028 17.576C123.212 16.712 122.564 15.752 122.084 14.696C121.604 13.592 121.364 12.416 121.364 11.168C121.364 9.91999 121.604 8.74399 122.084 7.63999C122.564 6.488 123.212 5.50399 124.028 4.68799C124.844 3.824 125.78 3.152 126.836 2.67199C127.94 2.19199 129.116 1.95199 130.364 1.95199C131.612 1.95199 132.788 2.19199 133.892 2.67199C135.044 3.152 136.028 3.824 136.844 4.68799C137.708 5.50399 138.38 6.488 138.86 7.63999C139.388 8.74399 139.652 9.91999 139.652 11.168ZM175.181 89.432C177.533 92.6 180.101 94.832 182.885 96.128C185.717 97.424 188.813 98.072 192.173 98.072C199.037 98.072 204.293 95.648 207.941 90.8C211.589 85.952 213.413 78.728 213.413 69.128C213.413 60.2 211.781 53.648 208.517 49.472C205.301 45.248 200.693 43.136 194.693 43.136C190.517 43.136 186.869 44.096 183.749 46.016C180.677 47.936 177.821 50.648 175.181 54.152V89.432ZM175.181 44.576C178.253 41.024 181.709 38.192 185.549 36.08C189.437 33.968 193.901 32.912 198.941 32.912C203.213 32.912 207.053 33.728 210.461 35.36C213.917 36.992 216.845 39.368 219.245 42.488C221.645 45.56 223.469 49.304 224.717 53.72C226.013 58.136 226.661 63.104 226.661 68.624C226.661 74.528 225.941 79.904 224.501 84.752C223.061 89.6 220.973 93.752 218.237 97.208C215.549 100.616 212.261 103.28 208.373 105.2C204.485 107.072 200.117 108.008 195.269 108.008C190.469 108.008 186.413 107.12 183.101 105.344C179.837 103.52 176.981 100.952 174.533 97.64L173.885 104.264C173.501 106.088 172.397 107 170.573 107H162.293V0.943996H175.181V44.576ZM277.936 32.912C283.264 32.912 288.064 33.8 292.336 35.576C296.608 37.352 300.256 39.872 303.28 43.136C306.304 46.4 308.608 50.36 310.192 55.016C311.824 59.624 312.64 64.784 312.64 70.496C312.64 76.256 311.824 81.44 310.192 86.048C308.608 90.656 306.304 94.592 303.28 97.856C300.256 101.12 296.608 103.64 292.336 105.416C288.064 107.144 283.264 108.008 277.936 108.008C272.56 108.008 267.712 107.144 263.392 105.416C259.12 103.64 255.472 101.12 252.448 97.856C249.424 94.592 247.096 90.656 245.464 86.048C243.88 81.44 243.088 76.256 243.088 70.496C243.088 64.784 243.88 59.624 245.464 55.016C247.096 50.36 249.424 46.4 252.448 43.136C255.472 39.872 259.12 37.352 263.392 35.576C267.712 33.8 272.56 32.912 277.936 32.912ZM277.936 98C285.136 98 290.512 95.6 294.064 90.8C297.616 85.952 299.392 79.208 299.392 70.568C299.392 61.88 297.616 55.112 294.064 50.264C290.512 45.416 285.136 42.992 277.936 42.992C274.288 42.992 271.096 43.616 268.36 44.864C265.672 46.112 263.416 47.912 261.592 50.264C259.816 52.616 258.472 55.52 257.56 58.976C256.696 62.384 256.264 66.248 256.264 70.568C256.264 79.208 258.04 85.952 261.592 90.8C265.192 95.6 270.64 98 277.936 98ZM363.959 32.912C369.287 32.912 374.087 33.8 378.359 35.576C382.631 37.352 386.279 39.872 389.303 43.136C392.327 46.4 394.631 50.36 396.215 55.016C397.847 59.624 398.663 64.784 398.663 70.496C398.663 76.256 397.847 81.44 396.215 86.048C394.631 90.656 392.327 94.592 389.303 97.856C386.279 101.12 382.631 103.64 378.359 105.416C374.087 107.144 369.287 108.008 363.959 108.008C358.583 108.008 353.735 107.144 349.415 105.416C345.143 103.64 341.495 101.12 338.471 97.856C335.447 94.592 333.119 90.656 331.487 86.048C329.903 81.44 329.111 76.256 329.111 70.496C329.111 64.784 329.903 59.624 331.487 55.016C333.119 50.36 335.447 46.4 338.471 43.136C341.495 39.872 345.143 37.352 349.415 35.576C353.735 33.8 358.583 32.912 363.959 32.912ZM363.959 98C371.159 98 376.535 95.6 380.087 90.8C383.639 85.952 385.415 79.208 385.415 70.568C385.415 61.88 383.639 55.112 380.087 50.264C376.535 45.416 371.159 42.992 363.959 42.992C360.311 42.992 357.119 43.616 354.383 44.864C351.695 46.112 349.439 47.912 347.615 50.264C345.839 52.616 344.495 55.52 343.583 58.976C342.719 62.384 342.287 66.248 342.287 70.568C342.287 79.208 344.063 85.952 347.615 90.8C351.215 95.6 356.663 98 363.959 98Z" fill="white"/>
</svg>
